<?xml version="1.0" encoding="utf-8"?>
<!-- Generator: Adobe Illustrator 16.0.0, SVG Export Plug-In . SVG Version: 6.00 Build 0)  -->
<!DOCTYPE svg PUBLIC "-//W3C//DTD SVG 1.1//EN" "http://www.w3.org/Graphics/SVG/1.1/DTD/svg11.dtd">
<svg version="1.1" id="Layer_1" xmlns="http://www.w3.org/2000/svg" xmlns:xlink="http://www.w3.org/1999/xlink" x="0px" y="0px"
	 width="2107.147px" height="339.252px" viewBox="0 0 2107.147 339.252" enable-background="new 0 0 2107.147 339.252"
	 xml:space="preserve">
<g>
	<g>
		<path fill="#1A1A1A" d="M1591.354,72.889h-10.99c-2.66,0-5.255,0.572-7.977,1.825c-6.141,2.936-10.158,8.999-10.478,15.777
			l-0.056,0.907c0,0.303,0.022,0.6,0.045,0.6v126.488h-92.729c-12.534-0.088-17.921-5.316-18.009-17.448l-0.012-107.908l0.045-0.352
			l-0.061-3.183c-0.924-9.527-8.835-16.707-18.4-16.707h-10.77c-2.775,0-5.464,0.616-7.977,1.825
			c-6.398,3.057-10.533,9.609-10.533,16.684v114.516c0.127,39.306,20.967,60.151,60.295,60.278h127.605
			c9.537,0,17.447-7.163,18.421-17.224V92.686l-0.027-3.09C1608.824,80.069,1600.919,72.889,1591.354,72.889z"/>
		<path fill="#1A1A1A" d="M833.969,72.889h-91.13c-39.289,0.121-60.25,20.956-60.624,60.295v81.063
			c0.088,23.595,10.609,51.817,60.294,52.29h91.316h0.028c50.19-0.473,60.839-27.942,60.933-50.927v-82.482
			C894.412,93.724,873.379,72.889,833.969,72.889z M846.733,138.044v72.642c-0.027,2.018-0.104,8.152-19.015,8.152h-71.812
			c-14.694-0.082-20.856-3.227-23.44-5.849c-1.765-1.792-2.573-4.03-2.545-7.092v-67.766c0.187-12.319,5.723-17.619,18.509-17.718
			h80.635C841.45,120.507,846.733,125.779,846.733,138.044z"/>
		<path fill="#1A1A1A" d="M2046.336,72.889h-91.13c-39.289,0.121-60.25,20.956-60.625,60.295v81.063
			c0.089,23.595,10.61,51.817,60.295,52.29h91.312h0.027c50.202-0.473,60.845-27.942,60.933-50.927v-82.482
			C2106.773,93.724,2085.746,72.889,2046.336,72.889z M2059.101,138.044v72.642c-0.027,2.018-0.104,8.152-19.016,8.152h-71.812
			c-14.688-0.082-20.851-3.227-23.435-5.844c-1.771-1.797-2.578-4.035-2.551-7.097v-67.771c0.182-12.313,5.717-17.613,18.51-17.712
			h80.635C2053.817,120.507,2059.101,125.779,2059.101,138.044z"/>
		<path fill="#1A1A1A" d="M1670.972,0h-11.775c-2.775,0-5.464,0.616-7.977,1.825c-6.398,3.057-10.533,9.604-10.533,16.685v11.726
			c0,7.069,4.135,13.617,10.539,16.69c2.529,1.204,5.211,1.82,7.971,1.82h11.775c9.582,0,17.68-7.477,18.461-17.46l0.005-2.028
			l-0.017-12.155C1688.69,7.509,1680.587,0,1670.972,0z"/>
		<path fill="#1A1A1A" d="M634.052,84.318c-9.956-7.416-23.55-11.209-40.438-11.259H430.64c-16.866,0.05-30.466,3.843-40.428,11.259
			c-13.44,10.021-20.296,26.514-20.367,49.036v114.504c0,10.203,8.301,18.504,18.504,18.504h11.099
			c9.582,0,17.679-7.476,18.46-17.454l0.159-109.963c0.093-12.776,5.684-18.263,18.663-18.355h37.113
			c9.466,1.413,13.727,6.976,13.804,17.96l0.159,108.451l-0.022,0.242l0.022,0.571v0.159c0,0.039,0.005,0.072,0.011,0.104
			l0.006,0.177h0.011c0.27,6.871,4.255,12.974,10.473,15.953c2.424,1.159,5.024,1.77,7.394,1.792l0.572,0.017L517.426,266
			l0.621,0.021l0.292-0.005c8.977-0.16,16.404-6.63,17.91-15.706l0.22-0.439l-0.005-4.321l0.159-106.973
			c0.077-11.012,4.337-16.574,13.804-17.987h37.074c13.012,0.093,18.608,5.585,18.707,18.322l0.148,108.331l-0.027,0.341
			l0.039,0.868v0.033c0,0.006,0,0.011,0,0.017l0.011,0.214h0.011c0.313,6.817,4.299,12.87,10.461,15.821
			c2.518,1.21,5.206,1.825,7.988,1.825l11.154,0.027l0.758-0.032c8.95-0.368,16.371-7.174,17.591-16.465h0.028l0.06-116.555
			C654.354,110.821,647.499,94.329,634.052,84.318z"/>
		<path fill="#1A1A1A" d="M1077.275,144.904H986.91c-9.099-0.082-12.644-3.661-12.644-12.765c0-8.725,3.496-12.16,12.418-12.242
			l131.623,0.038c0.352,0,0.692-0.017,1.254-0.055c8.828-0.594,16.019-7.399,17.107-16.262l0.033-10.28l0.065-0.494l-0.104-3.672
			c-1.121-9.286-9.01-16.284-18.355-16.284H986.86c-49.816,0-60.383,27.965-60.471,51.444v18.416
			c0.088,22.979,10.654,50.378,60.471,50.378h84.945c17.773,0.27,17.855,7.977,17.894,11.012
			c-0.253,7.207-2.595,14.584-17.976,14.699L945.691,218.8c-0.429,0-0.847,0.021-1.265,0.055c-8.917,0.6-16.179,7.477-17.283,16.448
			l-0.1,0.736l0.012,2.771c0.011,0.204,0.032,0.407,0.06,0.633v6.25l-0.071,0.522l0.012,2.76c0.016,0.291,0.049,0.577,0.099,0.94
			c1.132,9.378,9.104,16.447,18.537,16.447h130.716c49.888,0,60.889-27.729,61.339-51.092v-17.899
			C1137.653,173.436,1127.087,144.904,1077.275,144.904z"/>
		<path fill="#1A1A1A" d="M1354.083,72.889h-132.997c-39.146,0.374-60.036,21.681-60.416,61.68v72.729
			c0.127,38.525,20.912,58.943,60.125,59.063l73.554-0.021c1.139,0.109,2.358,0.109,3.408-0.006
			c8.923-0.863,15.915-7.987,16.63-16.938l0.022-12.6l-0.017-0.874c-0.71-9.384-8.334-16.729-17.724-17.08
			c-0.236-0.017-0.484-0.033-1.133-0.006h-67.243c-13.87-0.093-19.829-5.898-19.917-19.361v-56.54
			c0.094-15.299,8.026-22.297,25.606-22.693h90.86l-0.05,200.499c0,0.324,0.022,0.644,0.056,0.974
			c0.357,6.762,4.364,12.781,10.473,15.717c2.522,1.203,5.211,1.819,7.981,1.819h10.78c9.57,0,17.674-7.477,18.46-17.477
			l-0.017-231.778C1371.807,80.404,1363.704,72.889,1354.083,72.889z"/>
		<path fill="#1A1A1A" d="M1859.86,72.367h-36.453l0.006-54.66l-0.049-0.792c-0.902-9.417-8.928-16.745-18.411-16.745h-10.759
			c-2.77,0-5.453,0.616-7.977,1.831c-6.35,3.035-10.379,9.296-10.482,15.865l-0.028,54.501l-37.629,0.016
			c-9.555,0.786-17.036,8.912-17.036,18.499v10.808c0,2.787,0.615,5.481,1.824,8.005c3.052,6.371,9.33,10.406,16.389,10.549h36.452
			l-0.022,129.66l0.105,0.313c1.088,9.346,8.883,16.321,18.361,16.321h10.752c2.766,0,5.448-0.615,7.982-1.824
			c6.229-2.98,10.22-9.06,10.511-16.207l0.011-128.439h38.46l1.022-0.094c8.796-1.621,15.184-9.296,15.184-18.245V90.921
			c0-2.793-0.615-5.487-1.825-8.004C1873.197,76.55,1866.919,72.504,1859.86,72.367z"/>
		<path fill="#1A1A1A" d="M1671.505,71.499h-11.1l-0.697-0.028l-0.676,0.033c-2.563,0.088-5.02,0.692-7.313,1.792
			c-6.365,3.057-10.395,9.334-10.494,16.118l-0.027,157.405l0.033,2.601c0.78,9.241,8.355,16.509,17.625,16.91l11.9,0.032
			l0.677-0.032c2.567-0.088,5.024-0.693,7.3-1.793c6.367-3.045,10.391-9.307,10.495-15.975l0.033-157.532l0.005-2.028l-0.094-1.204
			C1688.118,78.849,1680.691,71.899,1671.505,71.499z"/>
	</g>
	<g>
		<path fill="#C1272D" d="M303.129,22.325c-5.261-5.272-12.54-8.521-20.565-8.521H29.092c-8.037,0-15.31,3.249-20.571,8.521
			C3.254,27.591,0,34.858,0,42.885v253.482c0,8.026,3.254,15.294,8.521,20.565c5.261,5.267,12.534,8.516,20.571,8.516h253.472
			c8.026,0,15.305-3.249,20.565-8.516c5.267-5.271,8.521-12.539,8.521-20.565V42.885C311.649,34.858,308.396,27.591,303.129,22.325z
			"/>
		<path fill="#FFFFFF" d="M217.403,136.395h-32.182l10.396-10.385c1.693-1.71,2.54-3.941,2.54-6.162c0-0.017,0-0.033,0-0.044
			v-17.729l30.301-30.284c3.375-3.381,3.408-8.829,0.077-12.171c-3.342-3.337-8.773-3.293-12.16,0.083l-18.218,18.202L183.49,92.581
			c-1.325,1.336-2.122,2.984-2.419,4.711v2.985v16.091l-10.978,10.983v-16.866c0-6.415-4.128-11.847-9.834-13.754l-4.431-23.881
			l-4.431,23.869c-5.733,1.892-9.873,7.334-9.873,13.766v16.866l-10.983-10.983v-16.091v-2.985
			c-0.297-1.727-1.083-3.375-2.419-4.711l-14.678-14.678L95.247,59.701c-3.381-3.375-8.829-3.419-12.16-0.083
			c-3.337,3.342-3.304,8.791,0.066,12.171l30.291,30.284v17.729c0,0.011,0.021,0.027,0.021,0.044c0,2.221,0.836,4.452,2.545,6.162
			l10.384,10.385H94.246c-28.641,0-42.956,14.32-42.956,42.962v10.527v76.369v1.385c0,7.993,6.388,14.464,14.282,14.464
			c7.889,0,14.288-6.471,14.288-14.464v-1.385h0.072v-86.896c0-11.451,4.76-17.185,14.314-17.185h32.94
			c9.538,0,14.315,5.733,14.315,17.185v86.896h0.022v1.385c0,7.993,6.399,14.464,14.282,14.464c7.889,0,14.288-6.471,14.288-14.464
			v-1.385h0.06v-86.896c0-11.451,4.772-17.185,14.31-17.185h32.94c9.538,0,14.315,5.733,14.315,17.185v86.896h0.082v1.385
			c0,7.993,6.377,14.464,14.282,14.464c7.883,0,14.276-6.471,14.276-14.464v-1.385v-76.369v-10.527
			C260.359,150.715,246.05,136.395,217.403,136.395z"/>
	</g>
</g>
</svg>
