<?xml version="1.0" encoding="utf-8"?>
<!-- Generator: Adobe Illustrator 16.0.0, SVG Export Plug-In . SVG Version: 6.00 Build 0)  -->
<!DOCTYPE svg PUBLIC "-//W3C//DTD SVG 1.1//EN" "http://www.w3.org/Graphics/SVG/1.1/DTD/svg11.dtd">
<svg version="1.1" id="Layer_1" xmlns="http://www.w3.org/2000/svg" xmlns:xlink="http://www.w3.org/1999/xlink" x="0px" y="0px"
	 width="726.178px" height="459.1px" viewBox="0 0 726.178 459.1" enable-background="new 0 0 726.178 459.1" xml:space="preserve">
<g>
	<g>
		<path fill="#1A1A1A" d="M510.58,347.763h-4.593c-1.112,0-2.197,0.241-3.334,0.76c-2.567,1.232-4.247,3.765-4.38,6.596
			l-0.023,0.381c0,0.129,0.01,0.251,0.019,0.251v52.871h-38.76c-5.239-0.037-7.491-2.225-7.528-7.294l-0.004-45.104l0.019-0.145
			l-0.025-1.333c-0.387-3.979-3.693-6.982-7.691-6.982h-4.501c-1.161,0-2.284,0.255-3.335,0.76c-2.674,1.28-4.402,4.018-4.402,6.977
			v47.869c0.053,16.43,8.764,25.143,25.203,25.193h53.337c3.987,0,7.294-2.994,7.7-7.199v-65.325l-0.012-1.292
			C517.883,350.766,514.579,347.763,510.58,347.763z"/>
		<path fill="#1A1A1A" d="M194,347.763h-38.091c-16.423,0.053-25.185,8.759-25.341,25.202v33.884
			c0.037,9.86,4.435,21.66,25.203,21.857h38.169h0.012c20.979-0.197,25.43-11.68,25.469-21.287v-34.475
			C219.265,356.469,210.473,347.763,194,347.763z M199.335,374.996v30.364c-0.011,0.843-0.043,3.407-7.948,3.407h-30.017
			c-6.142-0.032-8.718-1.347-9.798-2.444c-0.737-0.75-1.075-1.685-1.063-2.965v-28.327c0.078-5.147,2.392-7.362,7.737-7.404h33.705
			C197.127,367.666,199.335,369.87,199.335,374.996z"/>
		<path fill="#1A1A1A" d="M700.759,347.763h-38.091c-16.423,0.053-25.185,8.759-25.341,25.202v33.884
			c0.037,9.86,4.435,21.66,25.203,21.857h38.167h0.011c20.984-0.197,25.433-11.68,25.47-21.287v-34.475
			C726.021,356.469,717.232,347.763,700.759,347.763z M706.095,374.996v30.364c-0.012,0.843-0.044,3.407-7.948,3.407H668.13
			c-6.14-0.032-8.716-1.347-9.796-2.444c-0.74-0.75-1.078-1.685-1.066-2.965v-28.327c0.076-5.147,2.39-7.362,7.737-7.404h33.704
			C703.887,367.666,706.095,369.87,706.095,374.996z"/>
		<path fill="#1A1A1A" d="M543.86,317.295h-4.922c-1.161,0-2.284,0.258-3.335,0.763c-2.675,1.278-4.402,4.018-4.402,6.975v4.901
			c0,2.955,1.728,5.691,4.405,6.976c1.057,0.506,2.178,0.761,3.332,0.761h4.922c4.005,0,7.39-3.127,7.716-7.298l0.002-0.848
			l-0.007-5.078C551.266,320.435,547.879,317.295,543.86,317.295z"/>
		<path fill="#1A1A1A" d="M110.437,352.54c-4.161-3.103-9.844-4.684-16.903-4.706H25.412c-7.05,0.022-12.734,1.604-16.898,4.706
			C2.896,356.727,0.03,363.62,0,373.036v47.862c0,4.265,3.47,7.734,7.734,7.734h4.64c4.005,0,7.39-3.125,7.716-7.296l0.067-45.961
			c0.039-5.341,2.376-7.637,7.801-7.676h15.513c3.957,0.591,5.737,2.916,5.77,7.505l0.067,45.335l-0.009,0.101l0.009,0.239v0.066
			c0,0.014,0.002,0.03,0.004,0.046l0.002,0.069h0.004c0.113,2.877,1.779,5.425,4.377,6.668c1.014,0.487,2.1,0.742,3.091,0.751
			l0.239,0.007l4.663-0.007l0.259,0.01l0.122-0.003c3.752-0.063,6.856-2.771,7.486-6.563l0.092-0.184l-0.002-1.811l0.066-44.711
			c0.032-4.604,1.813-6.929,5.77-7.52h15.497c5.439,0.039,7.778,2.335,7.819,7.661l0.062,45.277l-0.011,0.146l0.016,0.363v0.012
			c0,0.002,0,0.005,0,0.007l0.004,0.087h0.005c0.131,2.854,1.797,5.382,4.373,6.616c1.052,0.508,2.176,0.763,3.339,0.763
			l4.662,0.011l0.317-0.014c3.741-0.151,6.843-3.001,7.353-6.882l0.011,0.003l0.025-48.724
			C118.922,363.62,116.057,356.727,110.437,352.54z"/>
		<path fill="#1A1A1A" d="M295.7,377.864h-37.772c-3.803-0.035-5.285-1.53-5.285-5.336c0-3.646,1.461-5.08,5.191-5.117l55.017,0.016
			c0.147,0,0.29-0.007,0.524-0.021c3.69-0.25,6.696-3.097,7.151-6.799l0.014-4.297l0.028-0.209l-0.044-1.535
			c-0.469-3.879-3.766-6.804-7.672-6.804h-54.944c-20.823,0-25.239,11.688-25.276,21.503v7.697
			c0.037,9.607,4.453,21.058,25.276,21.058h35.506c7.429,0.113,7.463,3.334,7.479,4.603c-0.105,3.011-1.084,6.097-7.514,6.145
			l-52.681-0.016c-0.179,0-0.354,0.009-0.528,0.021c-3.727,0.253-6.763,3.13-7.225,6.875l-0.041,0.311l0.004,1.155
			c0.005,0.088,0.014,0.175,0.025,0.267v2.613l-0.03,0.218l0.004,1.153c0.007,0.122,0.021,0.239,0.042,0.396
			c0.473,3.918,3.805,6.873,7.748,6.873h54.638c20.853,0,25.451-11.588,25.64-21.356v-7.481
			C320.938,389.79,316.521,377.864,295.7,377.864z"/>
		<path fill="#1A1A1A" d="M411.403,347.763h-55.592c-16.363,0.156-25.095,9.064-25.253,25.781v30.403
			c0.053,16.099,8.741,24.637,25.131,24.686l30.745-0.012c0.476,0.048,0.986,0.051,1.425,0c3.729-0.36,6.652-3.339,6.951-7.077
			l0.009-5.27l-0.007-0.365c-0.296-3.922-3.483-6.992-7.408-7.139c-0.099-0.008-0.202-0.017-0.473-0.003h-28.107
			c-5.798-0.039-8.289-2.463-8.325-8.093v-23.634c0.039-6.395,3.355-9.322,10.703-9.485h37.979l-0.021,83.807
			c0,0.136,0.01,0.27,0.023,0.407c0.149,2.826,1.824,5.343,4.377,6.569c1.055,0.504,2.179,0.761,3.337,0.761h4.506
			c4,0,7.388-3.125,7.716-7.305l-0.007-96.88C418.812,350.903,415.425,347.763,411.403,347.763z"/>
		<path fill="#1A1A1A" d="M622.813,347.544h-15.236l0.002-22.848l-0.021-0.331c-0.377-3.936-3.731-6.999-7.695-6.999h-4.497
			c-1.158,0-2.279,0.258-3.334,0.766c-2.654,1.269-4.339,3.883-4.382,6.631l-0.012,22.781l-15.729,0.01
			c-3.994,0.326-7.121,3.722-7.121,7.729v4.518c0,1.165,0.257,2.293,0.763,3.346c1.275,2.661,3.899,4.352,6.85,4.409h15.237
			l-0.009,54.195l0.043,0.133c0.455,3.906,3.714,6.822,7.675,6.822h4.495c1.155,0,2.276-0.255,3.336-0.761
			c2.604-1.245,4.271-3.789,4.394-6.776l0.005-53.687h16.075l0.428-0.039c3.677-0.681,6.347-3.888,6.347-7.627v-4.518
			c0-1.165-0.258-2.29-0.763-3.346C628.389,349.29,625.765,347.604,622.813,347.544z"/>
		<path fill="#1A1A1A" d="M544.083,347.181h-4.64l-0.292-0.011l-0.282,0.011c-1.071,0.042-2.098,0.292-3.056,0.752
			c-2.661,1.277-4.346,3.903-4.387,6.737l-0.012,65.794l0.014,1.089c0.326,3.86,3.493,6.898,7.367,7.068l4.975,0.012l0.282-0.012
			c1.073-0.041,2.101-0.294,3.052-0.749c2.661-1.273,4.343-3.893,4.387-6.678l0.014-65.85l0.002-0.848l-0.039-0.505
			C551.027,350.253,547.923,347.351,544.083,347.181z"/>
	</g>
	<g>
		<path fill="#C1272D" d="M506.056,8.27C500.945,3.16,493.887,0,486.09,0H240.088c-7.797,0-14.856,3.16-19.966,8.27
			s-8.27,12.169-8.27,19.966v246.002c0,7.797,3.16,14.855,8.27,19.966s12.169,8.27,19.966,8.27H486.09
			c7.797,0,14.855-3.159,19.966-8.27s8.271-12.169,8.271-19.966V28.236C514.326,20.439,511.166,13.38,506.056,8.27z"/>
		<path fill="#FFFFFF" d="M422.855,118.987h-31.236l10.083-10.085c1.656-1.656,2.479-3.823,2.477-5.979
			c0-0.016,0.005-0.028,0.005-0.046v-17.2l29.398-29.398c3.281-3.281,3.313-8.566,0.076-11.804
			c-3.238-3.237-8.523-3.206-11.805,0.076l-17.67,17.67l-14.242,14.242c-1.291,1.292-2.062,2.897-2.344,4.563v2.902v15.621
			l-10.657,10.66V93.837c0-6.227-4.008-11.503-9.545-13.344l-4.307-23.18l-4.302,23.167c-5.559,1.832-9.582,7.114-9.582,13.357
			v16.37l-10.657-10.658V83.929v-2.902c-0.28-1.666-1.05-3.272-2.344-4.563l-14.242-14.242l-17.67-17.67
			c-3.279-3.282-8.566-3.313-11.801-0.076c-3.24,3.238-3.206,8.523,0.073,11.804l29.398,29.398v17.2c0,0.018,0.005,0.03,0.005,0.046
			c0,2.155,0.822,4.322,2.477,5.979l10.085,10.085h-31.205c-27.802,0-41.699,13.9-41.699,41.699V170.9v74.122v1.337
			c0,7.758,6.208,14.047,13.865,14.047c7.657,0,13.868-6.289,13.868-14.047v-1.337h0.067v-84.336c0-11.121,4.63-16.68,13.899-16.68
			h31.968c9.263,0,13.897,5.559,13.897,16.68v84.336h0.016v1.337c0,7.758,6.209,14.047,13.865,14.047s13.87-6.289,13.87-14.047
			v-1.337h0.048v-84.336c0-11.121,4.633-16.68,13.897-16.68h31.97c9.265,0,13.897,5.559,13.897,16.68v84.336h0.066v1.337
			c0,7.758,6.207,14.047,13.865,14.047c7.656,0,13.868-6.289,13.868-14.047v-1.337V170.9v-10.214
			C464.553,132.887,450.655,118.987,422.855,118.987z"/>
	</g>
</g>
</svg>
