<?xml version="1.0" encoding="utf-8"?>
<!-- Generator: Adobe Illustrator 16.0.0, SVG Export Plug-In . SVG Version: 6.00 Build 0)  -->
<!DOCTYPE svg PUBLIC "-//W3C//DTD SVG 1.1//EN" "http://www.w3.org/Graphics/SVG/1.1/DTD/svg11.dtd">
<svg version="1.1" id="Layer_1" xmlns="http://www.w3.org/2000/svg" xmlns:xlink="http://www.w3.org/1999/xlink" x="0px" y="0px"
	 width="429.631px" height="429.63px" viewBox="0 0 429.631 429.63" enable-background="new 0 0 429.631 429.63"
	 xml:space="preserve">
<g>
	<path fill="#C1272D" d="M417.884,11.747C410.625,4.488,400.599,0,389.524,0H40.106c-11.075,0-21.102,4.488-28.36,11.747
		C4.488,19.005,0,29.032,0,40.106v349.418c0,11.075,4.488,21.101,11.747,28.359c7.258,7.259,17.285,11.746,28.36,11.746h349.418
		c11.074,0,21.101-4.487,28.359-11.746s11.747-17.284,11.747-28.359V40.106C429.631,29.032,425.143,19.005,417.884,11.747z"/>
	<path fill="#FFFFFF" d="M299.707,169.007H255.34l14.321-14.325c2.353-2.353,3.521-5.431,3.518-8.492
		c0-0.023,0.007-0.04,0.007-0.065v-24.43l41.758-41.757c4.66-4.661,4.706-12.167,0.108-16.766c-4.6-4.599-12.107-4.553-16.768,0.108
		l-25.099,25.099l-20.229,20.229c-1.833,1.834-2.928,4.116-3.328,6.482v4.123v22.187L234.49,156.54v-23.255
		c0-8.845-5.692-16.338-13.558-18.953l-6.117-32.925l-6.11,32.905c-7.895,2.602-13.61,10.105-13.61,18.973v23.252l-15.138-15.138
		v-22.187v-4.123c-0.398-2.366-1.491-4.647-3.329-6.482l-20.229-20.229L131.3,63.279c-4.657-4.661-12.167-4.707-16.762-0.108
		c-4.603,4.599-4.554,12.105,0.104,16.766l41.757,41.757v24.43c0,0.026,0.007,0.042,0.007,0.065c0,3.061,1.168,6.139,3.519,8.492
		l14.324,14.325h-44.323c-39.489,0-59.228,19.743-59.228,59.229v14.508v105.281v1.899c0,11.019,8.818,19.952,19.693,19.952
		c10.875,0,19.697-8.934,19.697-19.952v-1.899h0.095v-119.79c0-15.796,6.576-23.692,19.742-23.692h45.407
		c13.157,0,19.74,7.896,19.74,23.692v119.79h0.022v1.899c0,11.019,8.819,19.952,19.694,19.952s19.701-8.934,19.701-19.952v-1.899
		h0.067v-119.79c0-15.796,6.581-23.692,19.74-23.692h45.409c13.159,0,19.74,7.896,19.74,23.692v119.79h0.094v1.899
		c0,11.019,8.816,19.952,19.694,19.952c10.875,0,19.698-8.934,19.698-19.952v-1.899V242.744v-14.508
		C358.934,188.75,339.193,169.007,299.707,169.007z"/>
</g>
</svg>
